<?xml version="1.0" encoding="UTF-8" standalone="no" ?>
<!DOCTYPE svg PUBLIC "-//W3C//DTD SVG 1.1//EN" "http://www.w3.org/Graphics/SVG/1.1/DTD/svg11.dtd">
<svg xmlns="http://www.w3.org/2000/svg" xmlns:xlink="http://www.w3.org/1999/xlink" version="1.1" width="1080" height="1080" viewBox="0 0 1080 1080" xml:space="preserve">
<desc>Created with Fabric.js 5.2.4</desc>
<defs>
</defs>
<g transform="matrix(1 0 0 1 540 540)" id="41e99e91-a0d0-429f-93e0-7680f947eae3"  >
</g>
<g transform="matrix(1 0 0 1 540 540)" id="da65c4ec-190f-4f29-963d-e6396c00ade7"  >
<rect style="stroke: none; stroke-width: 1; stroke-dasharray: none; stroke-linecap: butt; stroke-dashoffset: 0; stroke-linejoin: miter; stroke-miterlimit: 4; fill: rgb(255,255,255); fill-rule: nonzero; opacity: 1; visibility: hidden;" vector-effect="non-scaling-stroke"  x="-540" y="-540" rx="0" ry="0" width="1080" height="1080" />
</g>
<g transform="matrix(1 0 0 1 540 516.72)"  >
<path style="stroke: none; stroke-width: 1; stroke-dasharray: none; stroke-linecap: butt; stroke-dashoffset: 0; stroke-linejoin: miter; stroke-miterlimit: 4; fill: rgb(147,110,255); fill-rule: nonzero; opacity: 1;" vector-effect="non-scaling-stroke"  transform=" translate(-305, -150)" d="M 329.433 277.078 L 321.301 290.817 C 314.053 303.061 295.948 303.061 288.7 290.817 L 280.568 277.078 C 274.261 266.422 271.108 261.096 266.042 258.148 C 260.977 255.202 254.599 255.092 241.844 254.873 C 223.014 254.548 211.204 253.394 201.299 249.292 C 182.922 241.679 168.321 227.08 160.709 208.702 C 155 194.92 155 177.446 155 142.501 L 155 127.5 C 155 78.3988 155 53.848 166.052 35.8128 C 172.236 25.721 180.721 17.2363 190.813 11.052 C 208.848 -8.94073e-7 233.399 0 282.5 0 L 327.501 0 C 376.602 0 401.152 -8.94073e-7 419.188 11.052 C 429.281 17.2363 437.765 25.721 443.949 35.8128 C 455.001 53.848 455.001 78.3988 455.001 127.5 L 455.001 142.501 C 455.001 177.446 455.001 194.92 449.292 208.702 C 441.68 227.08 427.08 241.679 408.702 249.292 C 398.797 253.394 386.988 254.548 368.157 254.873 C 355.401 255.092 349.024 255.202 343.959 258.148 C 338.893 261.094 335.739 266.422 329.433 277.078 Z" stroke-linecap="round" />
</g>
<g transform="matrix(1 0 0 1 598.9 498.88)"  >
<path style="stroke: none; stroke-width: 1; stroke-dasharray: none; stroke-linecap: butt; stroke-dashoffset: 0; stroke-linejoin: miter; stroke-miterlimit: 4; fill: rgb(255,255,255); fill-rule: nonzero; opacity: 1;" vector-effect="non-scaling-stroke"  transform=" translate(-365, -135)" d="M 380.004 135.002 C 380.004 143.287 373.288 150.002 365.004 150.002 C 356.719 150.002 350.004 143.287 350.004 135.002 C 350.004 126.717 356.719 120.002 365.004 120.002 C 373.288 120.002 380.004 126.717 380.004 135.002 Z" stroke-linecap="round" />
</g>
<g transform="matrix(1 0 0 1 538.9 498.88)"  >
<path style="stroke: none; stroke-width: 1; stroke-dasharray: none; stroke-linecap: butt; stroke-dashoffset: 0; stroke-linejoin: miter; stroke-miterlimit: 4; fill: rgb(255,255,255); fill-rule: nonzero; opacity: 1;" vector-effect="non-scaling-stroke"  transform=" translate(-305, -135)" d="M 319.996 135.002 C 319.996 143.287 313.281 150.002 304.996 150.002 C 296.712 150.002 289.996 143.287 289.996 135.002 C 289.996 126.717 296.712 120.002 304.996 120.002 C 313.281 120.002 319.996 126.717 319.996 135.002 Z" stroke-linecap="round" />
</g>
<g transform="matrix(1 0 0 1 478.9 498.88)"  >
<path style="stroke: none; stroke-width: 1; stroke-dasharray: none; stroke-linecap: butt; stroke-dashoffset: 0; stroke-linejoin: miter; stroke-miterlimit: 4; fill: rgb(255,255,255); fill-rule: nonzero; opacity: 1;" vector-effect="non-scaling-stroke"  transform=" translate(-245, -135)" d="M 260 135.002 C 260 143.287 253.284 150.002 245 150.002 C 236.716 150.002 230 143.287 230 135.002 C 230 126.717 236.716 120.002 245 120.002 C 253.284 120.002 260 126.717 260 135.002 Z" stroke-linecap="round" />
</g>
<g transform="matrix(1 0 0 1 540 747.86)" style="" id="e27bca28-dc6e-4a88-aad5-3183246edc6a"  >
		<text xml:space="preserve" font-family="Raleway" font-size="105" font-style="normal" font-weight="900" style="stroke: none; stroke-width: 1; stroke-dasharray: none; stroke-linecap: butt; stroke-dashoffset: 0; stroke-linejoin: miter; stroke-miterlimit: 4; fill: rgb(255,254,254); fill-rule: nonzero; opacity: 1; white-space: pre;" ><tspan x="-271.79" y="32.98" >SyncRoom</tspan></text>
</g>
</svg>